<svg _ngcontent-dcv-c78="" xmlns="http://www.w3.org/2000/svg" width="132" height="34" fill="#fff"><path _ngcontent-dcv-c78="" d="M20.047 15.814c-.031-3.755 3.054-5.581 3.189-5.665-1.751-2.56-4.461-2.916-5.41-2.948-2.272-.241-4.482 1.374-5.639 1.374-1.178 0-2.971-1.343-4.889-1.311-2.47.042-4.795 1.479-6.056 3.724-2.616 4.563-.667 11.277 1.845 14.969 1.261 1.804 2.72 3.829 4.649 3.755 1.876-.073 2.585-1.206 4.847-1.206 2.251 0 2.908 1.206 4.868 1.164 2.022-.032 3.283-1.815 4.503-3.64 1.449-2.067 2.033-4.112 2.053-4.217-.052-.021-3.919-1.511-3.961-6zM16.346 4.779c1.011-1.269 1.699-3 1.511-4.763-1.459.063-3.294 1.018-4.347 2.266-.928 1.101-1.762 2.895-1.553 4.584 1.647.126 3.335-.839 4.388-2.088zm35.509 24.673h-2.627l-1.438-4.553h-5.003l-1.366 4.553h-2.554l4.951-15.494h3.064l4.972 15.494zm-4.492-6.462l-1.303-4.039c-.136-.42-.396-1.385-.771-2.916h-.052l-.73 2.916-1.282 4.039h4.138zm17.219.745c0 1.899-.511 3.399-1.543 4.5-.917.986-2.064 1.469-3.419 1.469-1.47 0-2.522-.524-3.169-1.584v5.864h-2.47V21.951l-.094-3.672h2.168l.136 1.773h.042c.823-1.332 2.074-2.004 3.742-2.004 1.313 0 2.397.524 3.273 1.563.897 1.049 1.334 2.413 1.334 4.123zm-2.512.084c0-1.091-.24-1.983-.73-2.686a2.52 2.52 0 0 0-2.147-1.101c-.605 0-1.157.21-1.657.608a2.81 2.81 0 0 0-.969 1.595c-.073.304-.115.556-.115.755v1.867c0 .808.25 1.5.74 2.056s1.136.839 1.928.839c.928 0 1.647-.367 2.168-1.08.521-.724.782-1.668.782-2.853zm15.27-.084c0 1.899-.511 3.399-1.543 4.5-.917.986-2.064 1.469-3.419 1.469-1.47 0-2.522-.524-3.169-1.584v5.864h-2.47V21.951l-.094-3.672h2.168l.136 1.773h.042c.823-1.332 2.074-2.004 3.742-2.004 1.313 0 2.397.524 3.273 1.563.896 1.049 1.334 2.413 1.334 4.123zm-2.512.084c0-1.091-.24-1.983-.73-2.686a2.52 2.52 0 0 0-2.147-1.101c-.605 0-1.157.21-1.657.608-.49.409-.813.934-.969 1.595-.073.304-.115.556-.115.755v1.867c0 .808.25 1.5.74 2.056s1.136.839 1.928.839c.928 0 1.657-.367 2.168-1.08.532-.724.782-1.668.782-2.853zm16.792 1.29c0 1.322-.459 2.392-1.365 3.221-1.001.902-2.397 1.353-4.19 1.353-1.657 0-2.981-.325-3.982-.965l.573-2.067a6.89 6.89 0 0 0 3.565.965c.928 0 1.657-.21 2.168-.629.521-.42.782-.986.782-1.689a2.19 2.19 0 0 0-.636-1.584c-.427-.43-1.136-.829-2.126-1.196-2.721-1.018-4.065-2.497-4.065-4.437 0-1.269.48-2.308 1.428-3.126.948-.808 2.21-1.217 3.784-1.217 1.397 0 2.564.241 3.492.734l-.625 2.014c-.876-.472-1.855-.713-2.96-.713-.865 0-1.553.22-2.043.64-.406.388-.615.85-.615 1.406a1.89 1.89 0 0 0 .709 1.511c.407.367 1.157.766 2.241 1.196 1.324.535 2.293 1.164 2.919 1.888.636.724.948 1.626.948 2.696zm8.172-4.962h-2.721v5.423c0 1.374.48 2.067 1.438 2.067.438 0 .803-.042 1.094-.115l.073 1.888c-.49.178-1.126.273-1.918.273-.98 0-1.73-.304-2.283-.902s-.823-1.605-.823-3.011v-5.633h-1.616V18.28h1.616v-2.046l2.418-.734v2.78h2.721v1.867zm12.237 3.63c0 1.72-.49 3.126-1.459 4.228-1.021 1.133-2.377 1.699-4.065 1.699-1.626 0-2.929-.546-3.898-1.626s-1.449-2.455-1.449-4.112c0-1.731.5-3.147 1.49-4.248 1.001-1.101 2.346-1.657 4.034-1.657 1.626 0 2.939.546 3.93 1.636.948 1.049 1.417 2.413 1.417 4.081zm-2.553.052c0-1.028-.219-1.899-.657-2.633-.521-.892-1.261-1.332-2.22-1.332-.991 0-1.751.441-2.262 1.332-.448.734-.657 1.626-.657 2.685 0 1.028.219 1.909.657 2.633.531.892 1.282 1.332 2.241 1.332.938 0 1.678-.451 2.22-1.353.448-.755.678-1.637.678-2.665zm10.579-3.367c-.24-.042-.5-.063-.782-.063-.865 0-1.542.325-2.011.986-.407.577-.615 1.322-.615 2.203v5.864h-2.471v-7.658l-.072-3.514h2.147l.094 2.14h.072c.261-.734.668-1.332 1.23-1.773.553-.399 1.147-.598 1.783-.598.229 0 .438.021.615.042l.01 2.371zm11.028 2.874c0 .441-.031.818-.094 1.122h-7.4c.031 1.101.385 1.951 1.073 2.528.626.514 1.428.776 2.419.776 1.094 0 2.095-.178 2.991-.524l.386 1.72c-1.053.462-2.293.692-3.721.692-1.72 0-3.075-.514-4.055-1.532s-1.47-2.392-1.47-4.102c0-1.678.459-3.084 1.376-4.207.959-1.196 2.251-1.794 3.878-1.794 1.594 0 2.814.598 3.627 1.794.657.965.99 2.13.99 3.525zm-2.356-.64c.021-.734-.146-1.374-.479-1.909-.427-.692-1.084-1.038-1.96-1.038-.802 0-1.459.336-1.959 1.007-.407.535-.657 1.185-.73 1.93l5.128.011zM46.175 8.419h-1.293l-.709-2.234h-2.46l-.678 2.234h-1.251l2.43-7.616h1.501l2.46 7.616zm-2.22-3.179l-.636-1.993-.386-1.437h-.021l-.365 1.437-.625 1.993h2.033zm8.307-2.318l-2.064 5.497H49.02l-2.001-5.497h1.303l.928 2.906.396 1.385h.031l.396-1.385.917-2.906h1.272zm4.399 5.497l-.094-.629h-.031c-.375.504-.907.755-1.595.755-.98 0-1.668-.692-1.668-1.615 0-1.353 1.167-2.056 3.189-2.056v-.105c0-.724-.386-1.08-1.136-1.08-.542 0-1.011.136-1.428.409l-.25-.797c.5-.315 1.136-.472 1.876-.472 1.428 0 2.147.755 2.147 2.276V7.13c0 .556.021.986.083 1.311L56.66 8.42zm-.167-2.738c-1.345 0-2.022.325-2.022 1.112 0 .577.344.86.834.86.615 0 1.188-.472 1.188-1.122v-.85zm3.878-3.661c-.407 0-.72-.315-.72-.734s.323-.724.741-.724.751.304.74.724c0 .441-.313.734-.761.734zm-.584.902h1.21v5.486h-1.21V2.922zM63.155.404h1.209v8.004h-1.209V.404zm6.358 8.015l-.094-.629h-.031c-.375.504-.907.755-1.595.755-.98 0-1.668-.692-1.668-1.615 0-1.353 1.167-2.056 3.19-2.056v-.105c0-.724-.386-1.08-1.136-1.08-.542 0-1.011.136-1.428.409l-.25-.808c.5-.315 1.136-.472 1.876-.472 1.428 0 2.147.755 2.147 2.276v2.025c0 .556.021.986.073 1.311h-1.084v-.01zm-.167-2.738c-1.345 0-2.022.325-2.022 1.112 0 .577.344.86.834.86.615 0 1.188-.472 1.188-1.122v-.85zm6.098 2.864a1.85 1.85 0 0 1-1.72-.976h-.021l-.073.85h-1.032l.042-1.479V.404h1.22V3.73h.021c.365-.608.938-.913 1.741-.913 1.313 0 2.231 1.133 2.231 2.78 0 1.699-1.022 2.948-2.408 2.948zm-.25-4.773c-.698 0-1.334.608-1.334 1.458v.965c0 .755.573 1.374 1.313 1.374.907 0 1.449-.745 1.449-1.93 0-1.112-.563-1.867-1.428-1.867zm4.45-3.368h1.209v8.004h-1.209V.404zm7.807 5.56h-3.638c.021 1.039.709 1.626 1.72 1.626.542 0 1.032-.094 1.47-.262l.188.85c-.511.231-1.115.336-1.824.336-1.709 0-2.721-1.08-2.721-2.769 0-1.678 1.032-2.948 2.585-2.948 1.386 0 2.272 1.039 2.272 2.612 0 .22-.01.409-.052.556zm-1.105-.871c0-.85-.427-1.448-1.199-1.448-.698 0-1.24.608-1.324 1.448h2.522zM94.8 8.545c-1.595 0-2.627-1.196-2.627-2.822 0-1.699 1.053-2.906 2.721-2.906 1.574 0 2.627 1.143 2.627 2.811 0 1.71-1.084 2.916-2.721 2.916zm.052-4.836c-.876 0-1.438.829-1.438 1.972 0 1.133.573 1.951 1.428 1.951s1.428-.881 1.428-1.983c-.01-1.112-.563-1.941-1.418-1.941zm9.183 4.709h-1.209V5.261c0-.976-.375-1.458-1.105-1.458-.719 0-1.209.619-1.209 1.343v3.262h-1.209V4.495l-.042-1.574h1.063l.052.85h.032c.323-.587.99-.965 1.73-.965 1.146 0 1.897.881 1.897 2.318v3.294zm7.932-4.573h-1.334V6.51c0 .682.24 1.018.709 1.018a2.64 2.64 0 0 0 .542-.052l.031.923c-.24.094-.552.136-.938.136-.959 0-1.522-.535-1.522-1.92v-2.77h-.792v-.913h.792V1.925l1.188-.367v1.364h1.334v.923m6.411 4.574h-1.209V5.282c0-.986-.376-1.479-1.105-1.479-.626 0-1.209.43-1.209 1.301v3.304h-1.209V.404h1.209v3.294h.02a1.83 1.83 0 0 1 1.637-.892c1.157 0 1.866.902 1.866 2.339v3.273zm6.191-2.455h-3.638c.021 1.039.709 1.626 1.72 1.626a4.08 4.08 0 0 0 1.47-.262l.188.85c-.511.231-1.116.336-1.825.336-1.709 0-2.72-1.08-2.72-2.769 0-1.678 1.032-2.948 2.585-2.948 1.386 0 2.272 1.039 2.272 2.612 0 .22-.01.409-.052.556zm-1.105-.871c0-.85-.427-1.448-1.198-1.448-.699 0-1.251.608-1.324 1.448h2.522z"></path></svg>