<svg id="Layer_1" data-name="Layer 1" xmlns="http://www.w3.org/2000/svg" viewBox="0 0 382.04 290.71"><defs><style>.cls-1{fill:#242974;}.cls-2{fill:#005ca8;}.cls-3{fill:#00b7dd;}</style></defs><path class="cls-1" d="M31.26,208a2.7,2.7,0,0,0,2.85-2.7,2.88,2.88,0,1,0-2.85,2.7Z" transform="translate(-12 -9.03)"/><path class="cls-1" d="M23,208a2.71,2.71,0,0,0,2.9-2.7,2.74,2.74,0,0,0-2.9-2.7,2.73,2.73,0,0,0-2.85,2.7A2.7,2.7,0,0,0,23,208Z" transform="translate(-12 -9.03)"/><path class="cls-1" d="M46.09,248.18a2.77,2.77,0,0,0-2.85,2.76,2.88,2.88,0,0,0,5.75,0A2.79,2.79,0,0,0,46.09,248.18Z" transform="translate(-12 -9.03)"/><path class="cls-1" d="M54.34,248.18a2.79,2.79,0,0,0-2.9,2.76,2.88,2.88,0,0,0,5.75,0A2.77,2.77,0,0,0,54.34,248.18Z" transform="translate(-12 -9.03)"/><path class="cls-1" d="M84.55,203.53a2.74,2.74,0,0,0-2.9,2.7,2.88,2.88,0,1,0,2.9-2.7Z" transform="translate(-12 -9.03)"/><path class="cls-1" d="M76.3,208.93a2.7,2.7,0,0,0,2.89-2.7,2.88,2.88,0,0,0-5.74,0A2.69,2.69,0,0,0,76.3,208.93Z" transform="translate(-12 -9.03)"/><path class="cls-1" d="M64.51,228.63v.05a13.12,13.12,0,0,0,3.09,8.75H52.52v-22.5H47.66v22.5H34.84v-25H30v2.46H27.72c-9.48,0-15.72,5.45-15.72,13.7v.05c0,8.16,6,13.56,15.08,13.56H87.35V214.93H80.28C70.75,214.93,64.51,220.38,64.51,228.63ZM30,237.43H26.74c-6,0-10.17-3.44-10.17-8.75v-.05c0-5.5,4.17-8.94,10.17-8.94H30Zm52.51,0h-3.3c-5.94,0-10.16-3.44-10.16-8.75v-.05c0-5.5,4.22-8.94,10.16-8.94h3.3Z" transform="translate(-12 -9.03)"/><path class="cls-1" d="M135.43,206.13a2.46,2.46,0,1,0-2.61-2.45A2.5,2.5,0,0,0,135.43,206.13Z" transform="translate(-12 -9.03)"/><path class="cls-1" d="M136.65,209.67a2.81,2.81,0,1,0,2.8-2.65A2.65,2.65,0,0,0,136.65,209.67Z" transform="translate(-12 -9.03)"/><path class="cls-1" d="M131.35,212.32a2.65,2.65,0,1,0-2.8-2.65A2.65,2.65,0,0,0,131.35,212.32Z" transform="translate(-12 -9.03)"/><path class="cls-1" d="M170.15,237.43h-5.59c-4.57,0-7.08-2.85-7.08-8.31V214.58h-4.81v15.63c0,5.1-2.8,7.66-7.42,7.66-4.42,0-7.37-2.75-7.37-7.22V218.27h-4.81V230c0,5.16-3.64,7.42-7.66,7.42h-5.85V218.27H114.7v19.16H103.11v-22.5H98.3v28.29c0,4-1.82,5.46-4.72,5.46a26.76,26.76,0,0,1-3.78-.3l.4,4.18a16.89,16.89,0,0,0,3.83.49c6,0,9.08-2.46,9.08-10.56v-.25h22.34c4.77,0,8.11-2,9.68-5.55,1.38,3.78,5.26,6,10.12,6,5.26,0,8.79-1.77,10.66-5.35,1.38,3,4.42,4.86,8.64,4.86H175V202.4h-4.86Z" transform="translate(-12 -9.03)"/><rect class="cls-1" x="171.51" y="193.37" width="4.81" height="39.84"/><path class="cls-1" d="M228.37,218.27h-.05c-7.37,0-12.53,4.86-13.41,12.38-7.52.19-11.89,4.91-11.89,13.26v9.14h4.81v-8.4c0-5.55,2.36-8.94,7.08-9.19.88,7.37,6.09,12.13,13.41,12.13h.05c8.1,0,13.51-5.84,13.51-14.49v0C241.88,224.16,236.47,218.27,228.37,218.27ZM237.06,233c0,5.79-3.49,9.72-8.69,9.72h-.05c-5.21,0-8.7-3.88-8.7-9.72v0c0-5.9,3.49-9.88,8.7-9.88h.05c5.2,0,8.69,4,8.69,9.88Z" transform="translate(-12 -9.03)"/><path class="cls-1" d="M289,248.18a2.79,2.79,0,0,0-2.9,2.76,2.88,2.88,0,0,0,5.75,0A2.77,2.77,0,0,0,289,248.18Z" transform="translate(-12 -9.03)"/><path class="cls-1" d="M280.72,248.18a2.76,2.76,0,0,0-2.84,2.76,2.88,2.88,0,0,0,5.74,0A2.78,2.78,0,0,0,280.72,248.18Z" transform="translate(-12 -9.03)"/><path class="cls-1" d="M302.48,208.54a2.65,2.65,0,0,0,2.8-2.7,2.68,2.68,0,0,0-2.8-2.7,2.75,2.75,0,0,0-2.94,2.7A2.72,2.72,0,0,0,302.48,208.54Z" transform="translate(-12 -9.03)"/><path class="cls-1" d="M324.29,248.18a2.78,2.78,0,0,0-2.89,2.76,2.88,2.88,0,0,0,5.74,0A2.77,2.77,0,0,0,324.29,248.18Z" transform="translate(-12 -9.03)"/><path class="cls-1" d="M316,248.18a2.77,2.77,0,0,0-2.85,2.76,2.88,2.88,0,0,0,5.75,0A2.79,2.79,0,0,0,316,248.18Z" transform="translate(-12 -9.03)"/><path class="cls-1" d="M338.09,208.93a2.71,2.71,0,0,0,2.9-2.7,2.88,2.88,0,0,0-5.75,0A2.7,2.7,0,0,0,338.09,208.93Z" transform="translate(-12 -9.03)"/><path class="cls-1" d="M339.81,237.43H322.48v-22.5h-4.87v22.5H304.79v-22.5H300v22.5H287.16v-22.5H282.3v22.5H269.48v-22.5h-7.13c-9.48,0-15.71,5.45-15.71,13.7v.05c0,8.16,6,13.56,15.08,13.56h2.9v.44c0,4.13-2.61,5.5-6.44,5.5a24.86,24.86,0,0,1-8.5-1.57l.89,5.11a22.35,22.35,0,0,0,7.81,1.33c7.07,0,10.9-2.75,11.05-10.81h75.2V214.93h-4.82Zm-75.19,0h-3.25c-6,0-10.17-3.44-10.17-8.75v-.05c0-5.5,4.18-8.94,10.17-8.94h3.25Z" transform="translate(-12 -9.03)"/><path class="cls-1" d="M346.35,203.53a2.74,2.74,0,0,0-2.9,2.7,2.88,2.88,0,1,0,2.9-2.7Z" transform="translate(-12 -9.03)"/><rect class="cls-1" x="345.2" y="198.33" width="4.81" height="26.43"/><path class="cls-1" d="M389.23,214.93v22.5h-5c-4.57,0-7.08-2.85-7.08-8.31V198.77h-4.81v30.89c0,5-3.29,7.77-9,7.77h-14l.93,4.81H362.8c6.14,0,10.37-1.82,12.58-5.45,1.22,3.33,4.39,5.43,8.83,5.45H394V214.93Z" transform="translate(-12 -9.03)"/><path class="cls-1" d="M389.23,248.18a2.74,2.74,0,1,0,0,5.46,2.73,2.73,0,1,0,0-5.46Z" transform="translate(-12 -9.03)"/><path class="cls-1" d="M33.54,271.39a10.8,10.8,0,0,1,0,15.83q-3.45,2.88-9.47,2.88H16.42v9.38H12v-31H24.07Q30.08,268.52,33.54,271.39Zm-3.19,13.07a7.1,7.1,0,0,0,0-10.31q-2.21-1.78-6.41-1.79H16.42v13.89h7.52Q28.14,286.25,30.35,284.46Z" transform="translate(-12 -9.03)"/><path class="cls-1" d="M43.31,266.66h4.25v32.82H43.31Z" transform="translate(-12 -9.03)"/><path class="cls-1" d="M71.64,278.2c1.73,1.59,2.59,4,2.59,7.12v14.16h-4v-3.1a6.67,6.67,0,0,1-3,2.5,11.61,11.61,0,0,1-4.66.86,9.72,9.72,0,0,1-6.3-1.9,6.53,6.53,0,0,1-.12-10C57.6,286.61,60,286,63.26,286H70v-.84a5.44,5.44,0,0,0-1.59-4.21,6.72,6.72,0,0,0-4.69-1.46,12.38,12.38,0,0,0-4.07.69A10.61,10.61,0,0,0,56.27,282l-1.77-3.19a12.82,12.82,0,0,1,4.34-2.23,18,18,0,0,1,5.35-.78C67.43,275.81,69.92,276.61,71.64,278.2Zm-4.22,17.18A6.15,6.15,0,0,0,70,292.31V289H63.44q-5.4,0-5.4,3.62a3.3,3.3,0,0,0,1.37,2.79,6.27,6.27,0,0,0,3.81,1A7.82,7.82,0,0,0,67.42,295.38Z" transform="translate(-12 -9.03)"/><path class="cls-1" d="M95.28,298.1a6.39,6.39,0,0,1-2.3,1.22,9.6,9.6,0,0,1-2.83.42,7.48,7.48,0,0,1-5.48-1.9,7.26,7.26,0,0,1-2-5.44V279.53h-4V276h4V270.9H87V276h6.72v3.5H87v12.69a4.09,4.09,0,0,0,1,2.92,3.53,3.53,0,0,0,2.72,1A5.09,5.09,0,0,0,94,295.05Z" transform="translate(-12 -9.03)"/><path class="cls-1" d="M100.48,270.73a2.6,2.6,0,0,1-.82-2,2.67,2.67,0,0,1,.82-2,2.8,2.8,0,0,1,2-.82,2.87,2.87,0,0,1,2.06.78,2.52,2.52,0,0,1,.82,1.92,2.7,2.7,0,0,1-.82,2,2.78,2.78,0,0,1-2.06.82A2.81,2.81,0,0,1,100.48,270.73Zm-.07,5.3h4.25v23.45h-4.25Z" transform="translate(-12 -9.03)"/><path class="cls-1" d="M132.37,278.4c1.75,1.73,2.63,4.25,2.63,7.59v13.49h-4.25v-13a7.16,7.16,0,0,0-1.64-5.13,6.14,6.14,0,0,0-4.68-1.72,7.3,7.3,0,0,0-5.44,2,7.85,7.85,0,0,0-2,5.77v12.08h-4.25V276h4.07v3.54a8.2,8.2,0,0,1,3.47-2.78,12.13,12.13,0,0,1,5-1A9.73,9.73,0,0,1,132.37,278.4Z" transform="translate(-12 -9.03)"/><path class="cls-1" d="M164.72,276v23.45h-4v-3.54a8.54,8.54,0,0,1-3.38,2.81,10.61,10.61,0,0,1-4.58,1,10.19,10.19,0,0,1-7.38-2.59q-2.7-2.58-2.7-7.63V276h4.24v13a7.27,7.27,0,0,0,1.64,5.15,6.12,6.12,0,0,0,4.69,1.75,7,7,0,0,0,5.31-2,8,8,0,0,0,1.94-5.75V276Z" transform="translate(-12 -9.03)"/><path class="cls-1" d="M209.15,278.38c1.72,1.71,2.58,4.24,2.58,7.61v13.49h-4.24v-13a7.43,7.43,0,0,0-1.57-5.13,5.77,5.77,0,0,0-4.49-1.72,6.72,6.72,0,0,0-5.13,2,8.08,8.08,0,0,0-1.9,5.77v12.08h-4.25v-13a7.38,7.38,0,0,0-1.57-5.13,5.76,5.76,0,0,0-4.49-1.72,6.73,6.73,0,0,0-5.13,2,8.08,8.08,0,0,0-1.9,5.77v12.08h-4.25V276h4.07v3.5a8.35,8.35,0,0,1,3.36-2.77,11.35,11.35,0,0,1,4.73-.95,10.37,10.37,0,0,1,4.87,1.11,7.61,7.61,0,0,1,3.27,3.23,9,9,0,0,1,3.7-3.19,12.09,12.09,0,0,1,5.33-1.15A9.54,9.54,0,0,1,209.15,278.38Z" transform="translate(-12 -9.03)"/><path class="cls-1" d="M254.55,295.63v3.85H232.08v-31h21.84v3.84H236.5v9.51H252v3.76H236.5v10Z" transform="translate(-12 -9.03)"/><path class="cls-1" d="M276.77,278.2c1.73,1.59,2.59,4,2.59,7.12v14.16h-4v-3.1a6.67,6.67,0,0,1-3,2.5,11.61,11.61,0,0,1-4.66.86,9.72,9.72,0,0,1-6.3-1.9,6.53,6.53,0,0,1-.11-10c1.5-1.26,3.89-1.88,7.16-1.88h6.72v-.84a5.44,5.44,0,0,0-1.59-4.21,6.72,6.72,0,0,0-4.69-1.46,12.34,12.34,0,0,0-4.07.69A10.61,10.61,0,0,0,261.4,282l-1.77-3.19a12.82,12.82,0,0,1,4.34-2.23,18,18,0,0,1,5.35-.78C272.56,275.81,275.05,276.61,276.77,278.2Zm-4.22,17.18a6.15,6.15,0,0,0,2.56-3.07V289h-6.54q-5.4,0-5.4,3.62a3.3,3.3,0,0,0,1.37,2.79,6.24,6.24,0,0,0,3.8,1A7.83,7.83,0,0,0,272.55,295.38Z" transform="translate(-12 -9.03)"/><path class="cls-1" d="M288.42,299a12.25,12.25,0,0,1-4.15-2l1.76-3.36a13.24,13.24,0,0,0,3.76,1.77,15.61,15.61,0,0,0,4.47.66q5.58,0,5.58-3.18a2.1,2.1,0,0,0-.76-1.69,4.71,4.71,0,0,0-1.88-.9c-.75-.19-1.82-.41-3.2-.64a32.75,32.75,0,0,1-4.63-1,7.09,7.09,0,0,1-3.07-1.95,5.41,5.41,0,0,1-1.28-3.84,6,6,0,0,1,2.65-5.11,11.83,11.83,0,0,1,7.12-1.93,19.24,19.24,0,0,1,4.69.58,12.51,12.51,0,0,1,3.85,1.55l-1.82,3.36a12.15,12.15,0,0,0-6.76-1.86,7.8,7.8,0,0,0-4.11.88,2.67,2.67,0,0,0-1.42,2.35,2.2,2.2,0,0,0,.8,1.81,5.09,5.09,0,0,0,2,1c.79.2,1.88.44,3.3.7a36.64,36.64,0,0,1,4.58,1,6.87,6.87,0,0,1,3,1.88,5.23,5.23,0,0,1,1.24,3.72,5.86,5.86,0,0,1-2.72,5.06,12.86,12.86,0,0,1-7.41,1.88A19.86,19.86,0,0,1,288.42,299Z" transform="translate(-12 -9.03)"/><path class="cls-1" d="M322.57,298.1a6.39,6.39,0,0,1-2.3,1.22,9.65,9.65,0,0,1-2.83.42,7.52,7.52,0,0,1-5.49-1.9A7.29,7.29,0,0,1,310,292.4V279.53h-4V276h4V270.9h4.24V276H321v3.5h-6.73v12.69a4.14,4.14,0,0,0,.95,2.92,3.56,3.56,0,0,0,2.72,1,5.1,5.1,0,0,0,3.32-1.11Z" transform="translate(-12 -9.03)"/><path class="cls-1" d="M348,289.17H329a7.4,7.4,0,0,0,2.72,5,8.89,8.89,0,0,0,5.77,1.88,8.73,8.73,0,0,0,6.77-2.83l2.34,2.74a10.24,10.24,0,0,1-4,2.83,13.68,13.68,0,0,1-5.28,1,13.93,13.93,0,0,1-6.59-1.52A10.9,10.9,0,0,1,326.3,294a13.06,13.06,0,0,1,0-12.34,11,11,0,0,1,4.2-4.27,12,12,0,0,1,6-1.53,11.68,11.68,0,0,1,6,1.53,10.72,10.72,0,0,1,4.12,4.27,13.09,13.09,0,0,1,1.48,6.28A12,12,0,0,1,348,289.17Zm-16.61-7.92a7.52,7.52,0,0,0-2.41,4.87h15a7.54,7.54,0,0,0-2.41-4.84,7.93,7.93,0,0,0-10.22,0Z" transform="translate(-12 -9.03)"/><path class="cls-1" d="M361.31,276.87a12,12,0,0,1,5.27-1.06v4.12a8.18,8.18,0,0,0-1-.05,7.17,7.17,0,0,0-5.42,2.06,8.14,8.14,0,0,0-2,5.86v11.68H354V276H358V280A7.23,7.23,0,0,1,361.31,276.87Z" transform="translate(-12 -9.03)"/><path class="cls-1" d="M391.41,278.4c1.75,1.73,2.63,4.25,2.63,7.59v13.49H389.8v-13a7.2,7.2,0,0,0-1.64-5.13,6.15,6.15,0,0,0-4.69-1.72,7.31,7.31,0,0,0-5.44,2,7.85,7.85,0,0,0-2,5.77v12.08h-4.25V276h4.07v3.54a8.32,8.32,0,0,1,3.47-2.78,12.13,12.13,0,0,1,5-1A9.7,9.7,0,0,1,391.41,278.4Z" transform="translate(-12 -9.03)"/><polygon class="cls-2" points="174.81 49.79 174.81 161.21 131.47 136.39 131.47 74.81 174.81 49.79"/><path class="cls-1" d="M262.57,102.36v12.18a20.72,20.72,0,0,1-10.37,18l-21.88,12.63L186.81,120.2l75.75-43.73Z" transform="translate(-12 -9.03)"/><path class="cls-3" d="M262.57,102.35V114h0a20.85,20.85,0,0,0-10.42-17.66h0l-12.08-6.91-13.88-7.95L186.81,59V9l49.84,28.52,12.8,7.33a26,26,0,0,1,13.1,22.63v34.84Z" transform="translate(-12 -9.03)"/></svg>