<svg _ngcontent-dcv-c78="" xmlns="http://www.w3.org/2000/svg" xmlns:xlink="http://www.w3.org/1999/xlink" width="140" height="34" fill="none"><g _ngcontent-dcv-c78="" fill="#fff"><path _ngcontent-dcv-c78="" d="M45.373 4.152c0 1.003-.241 1.88-.843 2.507a3.47 3.47 0 0 1-2.649 1.128 3.47 3.47 0 0 1-2.649-1.128c-.723-.752-1.084-1.629-1.084-2.757s.361-2.005 1.084-2.757A3.47 3.47 0 0 1 41.881.016c.482 0 .963.125 1.445.376s.843.501 1.084.877l-.602.627c-.482-.627-1.084-.877-1.927-.877-.723 0-1.445.251-1.927.877-.602.501-.843 1.253-.843 2.131s.241 1.629.843 2.131 1.204.877 1.927.877c.843 0 1.445-.251 2.047-.877.361-.376.602-.877.602-1.504h-2.649V3.651h3.492v.501zm5.54-3.134h-3.252V3.4h3.011v.877h-3.011v2.381h3.252v1.003h-4.215V.141h4.215v.877zm3.974 6.643h-.963V1.019h-2.047V.141h5.058v.877h-2.047v6.643zm5.54 0V.141h.963v7.52h-.963zm5.058 0h-.964V1.019h-2.047V.141h4.938v.877h-2.047v6.643h.121zm11.441-1.003a3.47 3.47 0 0 1-2.649 1.128 3.47 3.47 0 0 1-2.649-1.128c-.723-.752-1.084-1.629-1.084-2.757s.361-2.005 1.084-2.757A3.47 3.47 0 0 1 74.275.016a3.47 3.47 0 0 1 2.649 1.128c.722.752 1.084 1.629 1.084 2.757s-.361 2.005-1.084 2.757zm-4.576-.627c.482.501 1.204.877 1.927.877s1.445-.251 1.927-.877c.482-.501.843-1.253.843-2.131s-.241-1.629-.843-2.131C75.722 1.268 75 .892 74.277.892s-1.445.251-1.927.877c-.482.501-.843 1.253-.843 2.131s.241 1.629.843 2.131zm6.985 1.629V.141h1.084l3.492 5.891V.141h.963v7.52h-.963L80.176 1.52v6.142h-.843zm-9.034 11.032c-2.89 0-5.178 2.256-5.178 5.39 0 3.008 2.288 5.39 5.178 5.39s5.178-2.256 5.178-5.39c0-3.259-2.288-5.39-5.178-5.39zm0 8.523c-1.565 0-2.89-1.379-2.89-3.259s1.325-3.259 2.89-3.259 2.89 1.253 2.89 3.259c0 1.88-1.325 3.259-2.89 3.259zm-11.2-8.523c-2.89 0-5.178 2.256-5.178 5.39 0 3.008 2.288 5.39 5.178 5.39s5.178-2.256 5.178-5.39c0-3.259-2.288-5.39-5.178-5.39zm0 8.523c-1.566 0-2.89-1.379-2.89-3.259s1.325-3.259 2.89-3.259 2.89 1.253 2.89 3.259c0 1.88-1.325 3.259-2.89 3.259zm-13.367-6.894v2.256h5.178c-.12 1.253-.602 2.256-1.204 2.883-.723.752-1.927 1.629-3.974 1.629-3.251 0-5.66-2.632-5.66-6.016s2.529-6.016 5.66-6.016c1.686 0 3.011.752 3.974 1.629l1.566-1.629c-1.325-1.253-3.011-2.256-5.419-2.256-4.335 0-8.069 3.76-8.069 8.272s3.733 8.273 8.069 8.273c2.408 0 4.094-.752 5.54-2.381 1.445-1.504 1.927-3.635 1.927-5.264 0-.501 0-1.003-.12-1.379h-7.466zm54.674 1.755c-.482-1.253-1.686-3.384-4.336-3.384s-4.817 2.131-4.817 5.39c0 3.008 2.168 5.39 5.058 5.39 2.288 0 3.733-1.504 4.215-2.381l-1.686-1.253c-.602.877-1.325 1.504-2.529 1.504s-1.927-.501-2.529-1.63l6.865-3.008-.241-.627zm-6.985 1.755c0-2.005 1.566-3.133 2.649-3.133.843 0 1.686.501 1.927 1.128l-4.576 2.005zm-5.66 5.139h2.288V13.303h-2.288V28.97zm-3.613-9.15c-.602-.627-1.566-1.253-2.77-1.253-2.529 0-4.937 2.381-4.937 5.39s2.288 5.264 4.938 5.264c1.204 0 2.168-.627 2.649-1.253h.12v.752c0 2.006-1.084 3.134-2.77 3.134-1.325 0-2.288-1.003-2.529-1.88l-1.927.877c.602 1.379 2.047 3.134 4.576 3.134 2.649 0 4.817-1.629 4.817-5.515v-9.526H84.15v.877zm-2.649 7.395c-1.565 0-2.89-1.379-2.89-3.259s1.325-3.259 2.89-3.259 2.77 1.379 2.77 3.259-1.204 3.259-2.77 3.259zm29.384-13.913h-5.419V28.97h2.288v-5.891h3.131c2.529 0 4.937-1.88 4.937-4.888s-2.408-4.888-4.937-4.888zm.12 7.521h-3.251v-5.39h3.251c1.686 0 2.65 1.504 2.65 2.632-.121 1.379-1.084 2.758-2.65 2.758zm13.849-2.256c-1.686 0-3.372.752-3.974 2.381l2.047.877c.482-.877 1.205-1.128 2.048-1.128 1.204 0 2.288.752 2.408 2.005v.125c-.361-.251-1.325-.627-2.288-.627-2.168 0-4.335 1.253-4.335 3.51 0 2.131 1.806 3.51 3.733 3.51 1.565 0 2.288-.752 2.89-1.504h.121v1.253h2.167v-6.016c-.241-2.757-2.288-4.387-4.817-4.387zm-.241 8.648c-.722 0-1.806-.376-1.806-1.379 0-1.253 1.325-1.629 2.409-1.629.963 0 1.445.251 2.047.501-.241 1.504-1.445 2.507-2.65 2.507zm12.645-8.272l-2.529 6.768h-.12l-2.65-6.768h-2.408l3.974 9.526-2.288 5.264h2.288l6.142-14.79h-2.409zM117.027 28.97h2.288V13.303h-2.288V28.97z"></path><path _ngcontent-dcv-c78="" d="M.583 3.637c0-.542.072-.961.234-1.249l14.121 14.18L1.021 30.742c-.255-.301-.438-.786-.438-1.386V3.637zm19.186 8.376l5.576 3.245c.754.439 1.076.98 1.076 1.471s-.321 1.031-1.073 1.47l-5.544 3.049-4.48-4.563v-.145l4.446-4.528zM1.156 31.086l13.917-14.174 4.396 4.477-16.394 9.607c-.49.22-.903.32-1.247.307-.254-.009-.476-.079-.672-.217zm1.91-28.86l16.402 9.497-4.395 4.477L1.155 2.138a1.27 1.27 0 0 1 .683-.257c.337-.024.744.072 1.229.346z" stroke="#454056" stroke-width=".5"></path></g><g _ngcontent-dcv-c78="" opacity=".2"><mask _ngcontent-dcv-c78="" id="A" fill="#fff"><use _ngcontent-dcv-c78="" xlink:href="#E"></use></mask><use _ngcontent-dcv-c78="" xlink:href="#E" fill="#fff"></use><path _ngcontent-dcv-c78="" d="M19.758 21.326l.254.431-.504-.864.25.433zM3.19 30.869l-.25-.433-.01.005-.009.006.268.422zm-2.285 0l.316-.388-.353-.288-.319.325.357.35zm-.114.116l-.357-.35-.344.35.344.35.357-.35zm.114.116l-.357.35.019.02.022.018.316-.388zm2.285 0l-.254-.431-.007.004-.007.005.268.422zm16.318-10.208L2.941 30.435l.499.867 16.568-9.543-.499-.866zM2.922 30.447c-.388.247-.717.325-.984.315a1.19 1.19 0 0 1-.717-.281l-.632.775a2.19 2.19 0 0 0 1.311.505c.505.019 1.032-.136 1.559-.471l-.537-.844zm-2.374.072l-.114.116.714.701.114-.116-.714-.701zm-.114.817l.114.116.714-.701-.114-.116-.714.701zm.155.154a2.19 2.19 0 0 0 1.311.505c.505.019 1.032-.136 1.559-.471l-.537-.844c-.388.247-.717.325-.984.315a1.19 1.19 0 0 1-.717-.281l-.632.775zm2.855.043l16.568-9.775-.508-.861-16.568 9.775.508.861z" fill="#454056" mask="url(#A)"></path></g><g _ngcontent-dcv-c78="" opacity=".2"><mask _ngcontent-dcv-c78="" id="B" fill="#fff"><use _ngcontent-dcv-c78="" xlink:href="#F"></use></mask><use _ngcontent-dcv-c78="" xlink:href="#F" fill="#fff"></use><path _ngcontent-dcv-c78="" d="M.79 30.869l-.357.35.147.15h.21v-.5zm.114.116l-.357.35.857.873v-1.223h-.5zm0-.116h.5v-.5h-.5v.5zm18.853-9.542l-.248-.434-.564.322.455.463.357-.35zm.114.116l-.357.35.272.277.336-.195-.252-.432zm5.599-3.258l-.252-.432.252.432zM1.147 30.518c-.194-.198-.314-.599-.314-1.279h-1c0 .716.109 1.479.6 1.98l.714-.701zm-1.314-1.279v.116h1v-.116h-1zm0 .116c0 .798.26 1.517.715 1.98l.714-.701c-.231-.236-.428-.681-.428-1.279h-1zm1.571 1.629v-.116h-1v.116h1zm-.5-.616H.79v1h.114v-1zm24.319-12.735l-5.713 3.258.495.869 5.713-3.258-.495-.869zm-5.822 4.043l.114.116.713-.701-.114-.116-.714.701zm.723.198l5.599-3.259-.503-.864-5.599 3.258.503.864zm5.599-3.259c.905-.526 1.391-1.251 1.391-2.061h-1c0 .354-.199.793-.894 1.197l.503.864zm.391-2.061c0 .298-.233.631-.923 1.099l.562.827c.681-.463 1.362-1.061 1.362-1.927h-1z" fill="#454056" mask="url(#B)"></path></g><g _ngcontent-dcv-c78="" opacity=".2"><mask _ngcontent-dcv-c78="" id="C" fill="#fff"><use _ngcontent-dcv-c78="" xlink:href="#G"></use></mask><use _ngcontent-dcv-c78="" xlink:href="#G" fill="#fff"></use><path _ngcontent-dcv-c78="" d="M3.19 2.125l-.252.432h.001l.251-.433zm22.281 12.917l.281-.414-.015-.01-.015-.009-.251.432zm0-.116l.252-.432h-.001l-.251.433zM3.19 2.008l-.252.432h.001l.251-.433zm-.251.549L25.22 15.475l.502-.865L3.441 1.692l-.502.865zM25.19 15.456c.69.468.923.801.923 1.099h1c0-.866-.68-1.464-1.362-1.927l-.562.827zm1.923 1.099c0-.81-.486-1.535-1.391-2.061l-.503.864c.695.405.894.844.894 1.197h1zm-1.392-2.062L3.441 1.576l-.502.865L25.22 15.358l.502-.865zM3.441 1.576C2.56 1.063 1.645.928.915 1.34S-.167 2.61-.167 3.637h1c0-.834.278-1.259.575-1.427s.812-.188 1.53.23l.503-.864zM-.167 3.637v.116h1v-.116h-1zm1 .116c0-.764.272-1.203.584-1.388.306-.182.818-.218 1.521.191l.503-.864c-.897-.522-1.813-.616-2.535-.187C.19 1.931-.167 2.772-.167 3.754h1z" fill="#454056" mask="url(#C)"></path></g><defs _ngcontent-dcv-c78=""><path _ngcontent-dcv-c78="" id="E" d="M19.758 21.326L3.19 30.869c-.914.582-1.714.465-2.285 0l-.114.116.114.116c.571.465 1.371.582 2.285 0l16.568-9.775z"></path><path _ngcontent-dcv-c78="" id="F" d="M.79 30.869c-.343-.349-.457-.931-.457-1.629v.116c0 .698.229 1.28.571 1.629v-.116H.79zm24.681-12.801l-5.713 3.259.114.116 5.599-3.258c.8-.466 1.143-1.047 1.143-1.629 0 .582-.457 1.047-1.143 1.513z"></path><path _ngcontent-dcv-c78="" id="G" d="M3.19 2.125l22.281 12.917c.686.466 1.143.931 1.143 1.513 0-.582-.343-1.164-1.143-1.629L3.19 2.008C1.59 1.077.333 1.775.333 3.637v.116c0-1.746 1.257-2.56 2.857-1.629z"></path></defs></svg>