<?xml version="1.0" encoding="utf-8"?>
<!-- Generator: Adobe Illustrator 25.0.1, SVG Export Plug-In . SVG Version: 6.00 Build 0)  -->
<svg version="1.1" id="Layer_1" xmlns="http://www.w3.org/2000/svg" xmlns:xlink="http://www.w3.org/1999/xlink" x="0px" y="0px"
	 viewBox="0 0 763 204.8" style="enable-background:new 0 0 763 204.8;" xml:space="preserve">
<style type="text/css">
	.st0{fill:#005CA9;}
	.st1{fill:#242974;}
	.st2{fill:#00B8DE;}
</style>
<g>
	<g>
		<polygon class="st0" points="662.6,66.1 662.6,197.2 611.6,168 611.6,95.6 		"/>
		<path class="st1" d="M751.7,117.4v14.3c0,8.7-4.6,16.8-12.2,21.1l-25.8,14.9l-51.2-29.3l89.1-51.4L751.7,117.4z"/>
		<path class="st2" d="M751.7,117.3v13.8l0,0c-0.2-8.6-4.8-16.5-12.3-20.8l0,0l-14.2-8.1l-16.3-9.3l-46.3-26.5V7.5l58.6,33.6l15,8.6
			c9.5,5.5,15.4,15.6,15.4,26.6v10.5L751.7,117.3z"/>
	</g>
	<g>
		<path class="st1" d="M253.9,75.9c1.4,0.1,2.5-1,2.6-2.3c0-0.1,0-0.1,0-0.2c0.1-1.4-1-2.7-2.5-2.8c-1.4-0.1-2.7,1-2.8,2.5
			c-0.1,1.4,1,2.7,2.5,2.8C253.8,75.9,253.9,75.9,253.9,75.9z"/>
		<path class="st1" d="M246.4,75.9c1.4-0.1,2.4-1.2,2.3-2.6c-0.1-1.4-1.2-2.4-2.6-2.3c-1.3,0.1-2.3,1.2-2.3,2.5
			c0,1.4,1.1,2.5,2.5,2.5C246.3,75.9,246.3,75.9,246.4,75.9z"/>
		<path class="st1" d="M267.5,112.6c-1.4,0-2.6,1.1-2.6,2.5c0,0,0,0,0,0.1c0.1,1.4,1.3,2.6,2.8,2.5c1.3-0.1,2.4-1.1,2.5-2.5
			C270.1,113.8,268.9,112.6,267.5,112.6C267.5,112.6,267.5,112.6,267.5,112.6z"/>
		<path class="st1" d="M275,112.6c-1.4-0.1-2.6,1-2.6,2.4c0,0,0,0,0,0.1c0.1,1.4,1.3,2.6,2.8,2.5c1.3-0.1,2.4-1.1,2.5-2.5
			C277.6,113.8,276.5,112.6,275,112.6C275,112.6,275,112.6,275,112.6z"/>
		<path class="st1" d="M302.6,71.9c-1.4-0.1-2.6,1-2.6,2.4c0,0,0,0.1,0,0.1c-0.1,1.4,1,2.7,2.5,2.8c1.4,0.1,2.7-1,2.8-2.5
			c0.1-1.4-1-2.7-2.5-2.8C302.7,71.9,302.7,71.9,302.6,71.9z"/>
		<path class="st1" d="M295.1,76.8c1.4,0.1,2.6-0.9,2.6-2.3c0-0.1,0-0.1,0-0.2c-0.1-1.4-1.3-2.6-2.8-2.5c-1.3,0.1-2.4,1.1-2.5,2.5
			c0,1.4,1.1,2.5,2.4,2.5C295,76.8,295,76.8,295.1,76.8z"/>
		<path class="st1" d="M284.3,94.8L284.3,94.8c-0.1,2.9,0.9,5.8,2.8,8h-13.8V82.3h-4.4v20.5h-11.7V80h-4.4v2.2h-2.1
			c-8.7,0-14.4,5-14.4,12.5l0,0c0,7.5,5.5,12.4,13.8,12.4h55V82.3h-6.5C290,82.3,284.3,87.3,284.3,94.8z M252.8,102.8h-3
			c-5.5,0-9.3-3.1-9.3-8l0,0c0-5,3.8-8.2,9.3-8.2h3V102.8z M300.8,102.8h-3c-5.4,0-9.3-3.1-9.3-8l0,0c0-5,3.9-8.2,9.3-8.2h3V102.8z"
			/>
		<path class="st1" d="M349.1,74.2c1.2-0.1,2.2-1.1,2.1-2.4c-0.1-1.2-1.1-2.2-2.4-2.1c-1.2,0.1-2.1,1.1-2.1,2.3
			C346.7,73.3,347.7,74.3,349.1,74.2C349,74.2,349,74.2,349.1,74.2z"/>
		<path class="st1" d="M350.2,77.5c-0.1,1.4,1,2.6,2.4,2.7c1.4,0.1,2.6-1,2.7-2.4c0.1-1.4-1-2.6-2.4-2.7c0,0-0.1,0-0.1,0
			c-1.3-0.1-2.5,0.9-2.5,2.3C350.2,77.4,350.2,77.4,350.2,77.5z"/>
		<path class="st1" d="M345.3,79.9c1.3-0.1,2.4-1.2,2.3-2.6c-0.1-1.3-1.2-2.4-2.6-2.3c-1.3,0.1-2.3,1.1-2.3,2.4
			c0,1.3,1.1,2.4,2.4,2.4C345.2,79.9,345.3,79.9,345.3,79.9z"/>
		<path class="st1" d="M380.8,102.8h-5.1c-4.2,0-6.5-2.6-6.5-7.6V82h-4.4v14.3c0,4.7-2.6,7-6.8,7c-4,0-6.7-2.5-6.7-6.6V85.3h-4.4
			v10.7c0,4.7-3.3,6.8-7,6.8h-5.3V85.3h-4.4v17.5h-10.6V82.3h-4.4v25.8c0,3.7-1.7,5-4.3,5c-1.2,0-2.3-0.1-3.5-0.3l0.4,3.8
			c1.1,0.3,2.3,0.4,3.5,0.5c5.5,0,8.3-2.2,8.3-9.6v-0.2H340c4.4,0,7.4-1.8,8.8-5.1c1.2,3.5,4.8,5.5,9.2,5.5c4.8,0,8-1.6,9.7-4.9
			c1.3,2.7,4,4.4,7.9,4.5h9.6V70.8h-4.4L380.8,102.8z"/>
		<rect x="393" y="70.8" class="st1" width="4.4" height="36.4"/>
		<path class="st1" d="M433.9,85.3L433.9,85.3c-6.8,0-11.5,4.4-12.3,11.3c-6.9,0.2-10.9,4.5-10.9,12.1v8.4h4.4v-7.7
			c0-5.1,2.2-8.2,6.5-8.4c0.8,6.7,5.6,11.1,12.2,11.1h0c7.4,0,12.3-5.3,12.3-13.2l0,0C446.3,90.7,441.3,85.3,433.9,85.3z
			 M441.9,98.8c0,5.3-3.2,8.9-7.9,8.9h0c-4.8,0-7.9-3.5-7.9-8.9l0,0c0-5.4,3.2-9,7.9-9h0C438.7,89.8,441.9,93.4,441.9,98.8z"/>
		<path class="st1" d="M489.3,112.6c-1.4-0.1-2.6,1-2.6,2.4c0,0,0,0.1,0,0.1c0.1,1.4,1.3,2.6,2.8,2.5c1.3-0.1,2.4-1.1,2.5-2.5
			C491.9,113.8,490.7,112.6,489.3,112.6C489.3,112.6,489.3,112.6,489.3,112.6z"/>
		<path class="st1" d="M481.8,112.6c-1.4,0-2.6,1.1-2.6,2.5c0,0,0,0,0,0.1c0.1,1.4,1.3,2.6,2.8,2.5c1.3-0.1,2.4-1.1,2.5-2.5
			C484.4,113.8,483.2,112.6,481.8,112.6C481.8,112.6,481.8,112.6,481.8,112.6z"/>
		<path class="st1" d="M501.6,76.4c1.3,0.1,2.5-1,2.5-2.3c0-0.1,0-0.1,0-0.2c0-1.4-1.1-2.5-2.4-2.5c0,0-0.1,0-0.1,0
			c-1.4-0.1-2.6,1-2.7,2.3c0,0,0,0.1,0,0.1c0,1.4,1.1,2.5,2.5,2.5C501.5,76.4,501.6,76.4,501.6,76.4z"/>
		<path class="st1" d="M521.6,112.6c-1.4-0.1-2.6,1-2.6,2.4c0,0,0,0,0,0.1c0.1,1.4,1.3,2.6,2.8,2.5c1.3-0.1,2.4-1.1,2.5-2.5
			C524.1,113.8,523,112.6,521.6,112.6C521.6,112.6,521.6,112.6,521.6,112.6z"/>
		<path class="st1" d="M514,112.6c-1.4,0-2.6,1.1-2.6,2.5c0,0,0,0,0,0.1c0.1,1.4,1.3,2.6,2.8,2.5c1.3-0.1,2.4-1.1,2.5-2.5
			C516.6,113.8,515.5,112.6,514,112.6C514.1,112.6,514,112.6,514,112.6z"/>
		<path class="st1" d="M534.2,76.8c1.4,0.1,2.6-0.9,2.6-2.3c0-0.1,0-0.1,0-0.2c-0.1-1.4-1.3-2.6-2.8-2.5c-1.3,0.1-2.4,1.1-2.5,2.5
			c0,1.4,1.1,2.5,2.4,2.5C534.1,76.8,534.1,76.8,534.2,76.8z"/>
		<path class="st1" d="M535.7,102.8h-15.8V82.3h-4.4v20.5h-11.7V82.3h-4.4v20.5h-11.7V82.3h-4.4v20.5h-11.7V82.3H465
			c-8.7,0-14.4,5-14.4,12.5l0,0c0,7.5,5.5,12.4,13.8,12.4h2.6v0.4c0,3.8-2.4,5-5.9,5c-2.7,0-5.3-0.5-7.8-1.4l0.8,4.7
			c2.3,0.8,4.7,1.2,7.1,1.2c6.5,0,10-2.5,10.1-9.9h68.7V82.3h-4.4V102.8z M467,102.8h-3c-5.5,0-9.3-3.1-9.3-8l0,0
			c0-5,3.8-8.2,9.3-8.2h3V102.8z"/>
		<path class="st1" d="M541.7,71.9c-1.4-0.1-2.6,1-2.6,2.4c0,0,0,0.1,0,0.1c-0.1,1.4,1,2.7,2.5,2.8s2.7-1,2.8-2.5
			c0.1-1.4-1-2.7-2.5-2.8C541.8,71.9,541.7,71.9,541.7,71.9z"/>
		<rect x="551.6" y="75.4" class="st1" width="4.4" height="24.1"/>
		<path class="st1" d="M580.9,82.3v20.5h-4.5c-4.2,0-6.5-2.6-6.5-7.6V67.5h-4.4v28.2c0,4.6-3,7.1-8.2,7.1h-12.8l0.9,4.4h11.4
			c5.6,0,9.5-1.7,11.5-5c1.1,3,4,5,8.1,5h9V82.3H580.9z"/>
		<path class="st1" d="M580.9,112.6c-1.4,0-2.5,1.1-2.5,2.5s1.1,2.5,2.5,2.5s2.5-1.1,2.5-2.5S582.2,112.6,580.9,112.6z"/>
		<path class="st1" d="M34.3,85.3L34.3,85.3c-6.7,0-11.4,4.4-12.2,11.2c-6.8,0.2-10.8,4.5-10.8,12.1v8.3h4.3v-7.6
			c0-5,2.1-8.1,6.4-8.4c0.8,6.7,5.5,11,12.2,11h0c7.4,0,12.3-5.3,12.3-13.2v0C46.6,90.7,41.7,85.3,34.3,85.3z M42.2,98.7
			c0,5.3-3.2,8.8-7.9,8.8h0c-4.7,0-7.9-3.5-7.9-8.8v0c0-5.4,3.2-9,7.9-9h0C39.1,89.6,42.2,93.3,42.2,98.7L42.2,98.7z"/>
		<rect x="52.5" y="70.9" class="st1" width="4.4" height="36.2"/>
		<path class="st1" d="M101.3,76.8c1.4-0.1,2.4-1.2,2.3-2.6c-0.1-1.4-1.2-2.4-2.6-2.3c-1.3,0.1-2.3,1.1-2.3,2.5
			c0,1.4,1.1,2.5,2.5,2.5C101.2,76.8,101.3,76.8,101.3,76.8z"/>
		<path class="st1" d="M108.8,76.8c1.4,0.1,2.5-0.9,2.6-2.3c0.1-1.4-0.9-2.5-2.3-2.6c-0.1,0-0.2,0-0.3,0c-1.4-0.1-2.5,0.9-2.6,2.3
			c-0.1,1.4,0.9,2.5,2.3,2.6C108.6,76.8,108.7,76.8,108.8,76.8z"/>
		<path class="st1" d="M121.5,76.8c1.4-0.1,2.4-1.2,2.3-2.6c-0.1-1.4-1.2-2.4-2.6-2.3c-1.3,0.1-2.3,1.1-2.3,2.5
			c0,1.4,1.1,2.5,2.5,2.5C121.4,76.8,121.5,76.8,121.5,76.8z"/>
		<path class="st1" d="M129,76.8c1.4,0.1,2.5-0.9,2.6-2.3c0.1-1.4-0.9-2.5-2.3-2.6c-0.1,0-0.2,0-0.3,0c-1.4-0.1-2.5,0.9-2.6,2.3
			c-0.1,1.4,0.9,2.5,2.3,2.6C128.8,76.8,128.9,76.8,129,76.8z"/>
		<path class="st1" d="M174.2,96.1c0,4.6-2.5,7-6.7,7c-4,0-6.7-2.5-6.7-6.6V85.3h-4.4V96c0,4.7-3.3,6.8-7,6.8h-5.3V85.3h-4.4v17.4
			h-12.2V82.3h-4.4v20.5h-11.7V82.3h-6.4c-8.7,0-14.3,5-14.3,12.5v0c-0.1,2.9,0.9,5.7,2.8,8H82.2v-9.1c0-7.5-3.6-11.4-11.2-11.4
			h-1.1v4.4h1.7c4.2,0,6.5,2.1,6.5,6.6v9.4H62v4.4h87.5c4.3,0,7.4-1.8,8.8-5c1.2,3.4,4.8,5.5,9.2,5.5c7.4,0,11.1-3.9,11.1-11.8V82
			h-4.4L174.2,96.1z M107,102.7h-3c-5.4,0-9.2-3.1-9.2-8v0c0-5,3.8-8.1,9.2-8.1h3V102.7z"/>
		<rect x="189.6" y="75.4" class="st1" width="4.4" height="24"/>
		<path class="st1" d="M219.3,70.9v31.9h-5.1c-4.1,0-6.4-2.6-6.4-7.5V67.6h-4.4v28.1c0,4.6-3,7.1-8.2,7.1h-12.7l0.8,4.4h11.4
			c5.6,0,9.4-1.6,11.4-5c1.1,3,4,5,8.1,5h9.5V70.9H219.3z"/>
		<path class="st1" d="M29.5,133.4c3.7,3.4,3.9,9.2,0.5,12.8c-0.1,0.2-0.3,0.3-0.5,0.5c-1.9,1.6-4.6,2.4-8,2.4h-6.4v7.9h-3.7v-26
			h10.2C24.9,131,27.5,131.8,29.5,133.4z M26.8,144.4c2.4-2.3,2.5-6.1,0.2-8.5c-0.1-0.1-0.1-0.1-0.2-0.2c-1.6-1.1-3.5-1.6-5.4-1.5
			h-6.3v11.7h6.3C23.3,146,25.2,145.5,26.8,144.4L26.8,144.4z"/>
		<path class="st1" d="M37.6,129.4h3.6V157h-3.6V129.4z"/>
		<path class="st1" d="M61.5,139.1c1.4,1.3,2.2,3.3,2.2,6V157h-3.4v-2.6c-0.6,0.9-1.5,1.7-2.5,2.1c-1.2,0.5-2.6,0.8-3.9,0.7
			c-1.9,0.1-3.8-0.5-5.3-1.6c-1.3-1-2-2.6-2-4.2c-0.1-1.6,0.6-3.2,1.9-4.2c1.3-1.1,3.3-1.6,6-1.6h5.7V145c0.1-1.3-0.4-2.6-1.3-3.5
			c-1.1-0.9-2.5-1.3-3.9-1.2c-1.2,0-2.3,0.2-3.4,0.6c-1,0.3-2,0.9-2.8,1.5l-1.5-2.7c1.1-0.8,2.3-1.5,3.6-1.9c1.5-0.4,3-0.7,4.5-0.6
			C57.5,137,59.7,137.7,61.5,139.1z M57.9,153.6c1-0.6,1.7-1.5,2.2-2.6v-2.8h-5.5c-3,0-4.5,1-4.5,3c0,0.9,0.4,1.8,1.2,2.4
			c0.9,0.6,2.1,0.9,3.2,0.9C55.7,154.5,56.9,154.2,57.9,153.6z"/>
		<path class="st1" d="M81.4,155.9c-0.6,0.5-1.2,0.8-1.9,1c-0.8,0.2-1.6,0.4-2.4,0.4c-1.7,0.1-3.4-0.5-4.6-1.6
			c-1.2-1.2-1.7-2.9-1.6-4.6v-10.8h-3.4v-2.9h3.3V133h3.6v4.3H80v2.9h-5.7v10.7c-0.1,0.9,0.2,1.8,0.8,2.5c0.6,0.6,1.4,0.9,2.3,0.9
			c1,0,2-0.3,2.8-0.9L81.4,155.9z"/>
		<path class="st1" d="M85.7,132.8c-0.5-0.4-0.7-1-0.7-1.6c0-0.6,0.2-1.2,0.7-1.6c0.5-0.5,1.1-0.7,1.7-0.7c0.6,0,1.3,0.2,1.7,0.6
			c0.5,0.4,0.7,1,0.7,1.6c0,0.6-0.2,1.2-0.7,1.7C88.2,133.7,86.7,133.7,85.7,132.8L85.7,132.8z M85.6,137.3h3.6V157h-3.6V137.3z"/>
		<path class="st1" d="M112.5,139.3c1.5,1.4,2.2,3.6,2.2,6.4V157h-3.6v-10.9c0.1-1.6-0.4-3.1-1.4-4.3c-1.1-1-2.5-1.5-3.9-1.5
			c-1.7-0.1-3.3,0.5-4.6,1.7c-1.2,1.3-1.8,3.1-1.7,4.9V157H96v-19.8h3.4v3c0.7-1,1.8-1.8,2.9-2.4c1.3-0.6,2.8-0.8,4.2-0.8
			C108.8,137,110.9,137.8,112.5,139.3z"/>
		<path class="st1" d="M139.7,137.3V157h-3.4v-3c-0.7,1-1.7,1.8-2.9,2.4c-1.2,0.6-2.5,0.8-3.8,0.8c-2.3,0.1-4.5-0.7-6.2-2.2
			c-1.5-1.5-2.3-3.6-2.3-6.4v-11.3h3.6v10.9c-0.1,1.6,0.4,3.1,1.4,4.3c1,1,2.5,1.6,3.9,1.5c1.7,0.1,3.3-0.5,4.5-1.7
			c1.2-1.3,1.7-3.1,1.6-4.8v-10.2H139.7z"/>
		<path class="st1" d="M177.1,139.3c1.5,1.4,2.2,3.6,2.2,6.4V157h-3.6v-10.9c0.1-1.6-0.4-3.1-1.3-4.3c-1-1-2.4-1.5-3.8-1.5
			c-1.6-0.1-3.2,0.5-4.3,1.7c-1.1,1.3-1.7,3.1-1.6,4.9V157h-3.6v-10.9c0.1-1.6-0.4-3.1-1.3-4.3c-1-1-2.4-1.5-3.8-1.5
			c-1.6-0.1-3.2,0.5-4.3,1.7c-1.1,1.3-1.7,3.1-1.6,4.9V157h-3.6v-19.7h3.4v2.9c0.7-1,1.7-1.8,2.8-2.3c1.3-0.6,2.6-0.8,4-0.8
			c1.4,0,2.8,0.3,4.1,0.9c1.2,0.6,2.1,1.5,2.8,2.7c0.8-1.2,1.8-2.1,3.1-2.7c1.4-0.7,2.9-1,4.5-1C173.4,137,175.5,137.8,177.1,139.3z
			"/>
		<path class="st1" d="M215.3,153.8v3.2h-18.9v-26h18.4v3.2h-14.7v8h13.1v3.2h-13.1v8.4L215.3,153.8z"/>
		<path class="st1" d="M233.9,139.1c1.4,1.3,2.2,3.3,2.2,6V157h-3.4v-2.6c-0.6,0.9-1.5,1.7-2.5,2.1c-1.2,0.5-2.6,0.8-3.9,0.7
			c-1.9,0.1-3.8-0.5-5.3-1.6c-1.3-1-2-2.6-2-4.2c-0.1-1.6,0.6-3.2,1.9-4.2c1.3-1,3.3-1.6,6-1.6h5.6V145c0.1-1.3-0.4-2.6-1.3-3.5
			c-1.1-0.9-2.5-1.3-3.9-1.2c-1.2,0-2.3,0.2-3.4,0.6c-1,0.3-2,0.9-2.8,1.5l-1.5-2.7c1.1-0.8,2.3-1.5,3.6-1.9c1.5-0.4,3-0.7,4.5-0.6
			C229.9,137,232.2,137.7,233.9,139.1z M230.4,153.6c1-0.6,1.7-1.5,2.2-2.6v-2.8H227c-3,0-4.5,1-4.5,3c0,0.9,0.4,1.8,1.1,2.4
			c0.9,0.6,2.1,0.9,3.2,0.9C228.1,154.5,229.3,154.2,230.4,153.6z"/>
		<path class="st1" d="M243.7,156.6c-1.3-0.3-2.4-0.9-3.5-1.6l1.5-2.8c1,0.7,2,1.2,3.2,1.5c1.2,0.4,2.5,0.6,3.8,0.6
			c3.1,0,4.7-0.9,4.7-2.7c0-0.5-0.2-1.1-0.6-1.4c-0.5-0.4-1-0.6-1.6-0.8c-0.6-0.2-1.5-0.3-2.7-0.5c-1.3-0.2-2.6-0.5-3.9-0.9
			c-1-0.3-1.9-0.9-2.6-1.6c-0.8-0.9-1.1-2.1-1.1-3.2c0-1.7,0.8-3.3,2.2-4.3c1.8-1.2,3.9-1.7,6-1.6c1.3,0,2.7,0.2,3.9,0.5
			c1.1,0.3,2.2,0.7,3.2,1.3l-1.5,2.8c-1.7-1.1-3.7-1.6-5.7-1.6c-1.2-0.1-2.4,0.2-3.4,0.7c-0.7,0.4-1.2,1.2-1.2,2
			c0,0.6,0.2,1.1,0.7,1.5c0.5,0.4,1,0.7,1.6,0.8c0.7,0.2,1.6,0.4,2.8,0.6c1.3,0.2,2.6,0.5,3.9,0.9c1,0.3,1.8,0.8,2.5,1.6
			c0.7,0.9,1.1,2,1,3.1c0,1.7-0.8,3.3-2.3,4.3c-1.9,1.1-4,1.7-6.2,1.6C246.8,157.2,245.2,157,243.7,156.6z"/>
		<path class="st1" d="M272.4,155.9c-0.6,0.5-1.2,0.8-1.9,1c-0.8,0.2-1.6,0.4-2.4,0.4c-1.7,0.1-3.4-0.5-4.6-1.6
			c-1.2-1.2-1.7-2.9-1.6-4.6v-10.8h-3.3v-2.9h3.3V133h3.6v4.3h5.6v2.9h-5.6v10.7c-0.1,0.9,0.2,1.8,0.8,2.5c0.6,0.6,1.4,0.9,2.3,0.9
			c1,0,2-0.3,2.8-0.9L272.4,155.9z"/>
		<path class="st1" d="M293.8,148.3h-16c0.2,1.6,1,3.1,2.3,4.2c1.4,1.1,3.1,1.6,4.9,1.6c2.2,0.1,4.2-0.8,5.7-2.4l2,2.3
			c-0.9,1.1-2,1.9-3.3,2.4c-1.4,0.6-2.9,0.8-4.4,0.8c-1.9,0-3.8-0.4-5.5-1.3c-1.6-0.8-2.9-2.1-3.7-3.6c-1.7-3.2-1.7-7.1,0-10.4
			c0.8-1.5,2-2.7,3.5-3.6c1.5-0.9,3.3-1.3,5.1-1.3c1.8,0,3.5,0.4,5,1.3c1.5,0.8,2.7,2.1,3.5,3.6c0.9,1.6,1.3,3.4,1.2,5.3
			C293.9,147.6,293.9,148,293.8,148.3z M279.8,141.7c-1.2,1.1-1.9,2.5-2,4.1h12.6c-0.1-1.6-0.9-3-2-4.1
			C286,139.6,282.4,139.6,279.8,141.7L279.8,141.7z"/>
		<path class="st1" d="M305,138c1.4-0.6,2.9-0.9,4.4-0.9v3.5c-0.2,0-0.5,0-0.8,0c-1.7-0.1-3.3,0.5-4.5,1.7c-1.2,1.4-1.8,3.1-1.7,4.9
			v9.8h-3.6v-19.7h3.4v3.3C302.9,139.5,303.8,138.6,305,138z"/>
		<path class="st1" d="M330.3,139.3c1.5,1.4,2.2,3.6,2.2,6.4V157H329v-10.9c0.1-1.6-0.4-3.1-1.4-4.3c-1.1-1-2.5-1.5-3.9-1.5
			c-1.7-0.1-3.3,0.5-4.6,1.7c-1.2,1.3-1.8,3.1-1.7,4.9V157h-3.6v-19.7h3.4v3c0.7-1,1.8-1.8,2.9-2.4c1.3-0.6,2.7-0.8,4.2-0.8
			C326.5,137,328.7,137.8,330.3,139.3z"/>
		<path class="st1" d="M367.1,157l-5.6-8c-0.7,0-1.2,0.1-1.6,0.1h-6.4v7.9h-3.8v-26h10.1c3.4,0,6,0.8,8,2.4c1.9,1.6,3,4.1,2.9,6.6
			c0.1,1.8-0.5,3.6-1.5,5.1c-1,1.5-2.5,2.5-4.2,3.1l6.2,8.7L367.1,157z M365.1,144.4c2.4-2.3,2.5-6.1,0.2-8.5
			c-0.1-0.1-0.1-0.1-0.2-0.2c-1.6-1.1-3.5-1.6-5.4-1.5h-6.3v11.7h6.3C361.6,146,363.5,145.5,365.1,144.4L365.1,144.4z"/>
		<path class="st1" d="M393.9,148.3h-16c0.2,1.6,1,3.1,2.3,4.2c1.4,1.1,3.1,1.6,4.9,1.6c2.2,0.1,4.2-0.8,5.7-2.4l2,2.3
			c-0.9,1-2,1.9-3.3,2.4c-1.4,0.6-2.9,0.8-4.5,0.8c-1.9,0-3.8-0.4-5.5-1.3c-1.6-0.8-2.9-2.1-3.7-3.6c-1.7-3.2-1.7-7.1,0-10.4
			c0.8-1.5,2-2.7,3.5-3.6c1.5-0.9,3.3-1.3,5.1-1.3c1.8,0,3.5,0.4,5,1.3c1.5,0.8,2.7,2.1,3.5,3.6c0.9,1.6,1.3,3.4,1.2,5.3
			C394,147.6,394,148,393.9,148.3z M379.9,141.7c-1.2,1.1-1.9,2.5-2,4.1h12.6c-0.1-1.6-0.9-3-2-4.1c-1.2-1.1-2.7-1.6-4.3-1.6
			C382.7,140.1,381.1,140.6,379.9,141.7L379.9,141.7z"/>
		<path class="st1" d="M402.1,155.9c-1.5-0.8-2.8-2.1-3.7-3.6c-1.8-3.2-1.8-7.1,0-10.4c0.9-1.5,2.2-2.7,3.7-3.6
			c1.7-0.9,3.5-1.3,5.4-1.3c1.7,0,3.3,0.3,4.8,1.1c1.4,0.7,2.5,1.8,3.2,3.1l-2.7,1.8c-0.6-0.9-1.4-1.6-2.3-2.1c-0.9-0.5-2-0.7-3-0.7
			c-1.2,0-2.4,0.3-3.5,0.9c-1,0.6-1.9,1.4-2.4,2.4c-0.6,1.1-0.9,2.4-0.9,3.6c0,1.3,0.3,2.5,0.9,3.7c0.6,1,1.4,1.9,2.4,2.4
			c1.1,0.6,2.3,0.9,3.5,0.9c1,0,2.1-0.2,3-0.7c0.9-0.5,1.7-1.2,2.3-2.1l2.7,1.7c-0.7,1.3-1.9,2.4-3.2,3.1c-1.5,0.7-3.1,1.1-4.8,1.1
			C405.6,157.2,403.8,156.8,402.1,155.9z"/>
		<path class="st1" d="M426.3,138c1.4-0.6,2.9-0.9,4.4-0.9v3.5c-0.2,0-0.5,0-0.8,0c-1.7-0.1-3.3,0.5-4.5,1.7
			c-1.2,1.4-1.8,3.1-1.7,4.9v9.8h-3.6v-19.7h3.5v3.3C424.2,139.5,425.2,138.6,426.3,138z"/>
		<path class="st1" d="M453.8,137.3V157h-3.4v-3c-0.7,1-1.7,1.8-2.8,2.4c-1.2,0.6-2.5,0.8-3.9,0.8c-2.3,0.1-4.5-0.7-6.2-2.2
			c-1.5-1.5-2.3-3.6-2.3-6.4v-11.3h3.6v10.9c-0.1,1.6,0.4,3.1,1.4,4.3c1,1,2.5,1.6,3.9,1.5c1.7,0.1,3.3-0.5,4.5-1.7
			c1.2-1.3,1.8-3.1,1.6-4.8v-10.2H453.8z"/>
		<path class="st1" d="M460.6,132.8c-0.5-0.4-0.7-1-0.7-1.6c0-0.6,0.2-1.2,0.7-1.6c0.5-0.5,1.1-0.7,1.7-0.7c0.6,0,1.3,0.2,1.7,0.6
			c0.5,0.4,0.7,1,0.7,1.6c0,1.3-1,2.4-2.3,2.4c0,0,0,0-0.1,0C461.7,133.5,461.1,133.3,460.6,132.8z M460.6,137.3h3.6V157h-3.6V137.3
			z"/>
		<path class="st1" d="M482,155.9c-0.6,0.5-1.2,0.8-1.9,1c-0.8,0.2-1.6,0.4-2.4,0.4c-1.7,0.1-3.4-0.5-4.6-1.6
			c-1.2-1.2-1.7-2.9-1.6-4.6v-10.8h-3.3v-2.9h3.3V133h3.6v4.3h5.7v2.9H475v10.7c-0.1,0.9,0.2,1.8,0.8,2.5c0.6,0.6,1.4,0.9,2.3,0.9
			c1,0,2-0.3,2.8-0.9L482,155.9z"/>
		<path class="st1" d="M516.9,139.3c1.5,1.4,2.2,3.6,2.2,6.4V157h-3.6v-10.9c0.1-1.6-0.4-3.1-1.3-4.3c-1-1-2.4-1.5-3.8-1.5
			c-1.6-0.1-3.2,0.5-4.3,1.7c-1.1,1.3-1.7,3.1-1.6,4.9V157h-3.6v-10.9c0.1-1.6-0.4-3.1-1.3-4.3c-1-1-2.4-1.5-3.8-1.5
			c-1.6-0.1-3.2,0.5-4.3,1.7c-1.1,1.3-1.7,3.1-1.6,4.9V157h-3.6v-19.7h3.4v2.9c0.7-1,1.7-1.8,2.9-2.3c1.3-0.6,2.6-0.8,4-0.8
			c1.4,0,2.8,0.3,4.1,0.9c1.2,0.6,2.1,1.5,2.8,2.7c0.8-1.2,1.8-2.1,3.1-2.7c1.4-0.7,2.9-1,4.5-1C513.2,137,515.3,137.8,516.9,139.3z
			"/>
		<path class="st1" d="M543.5,148.3h-16c0.2,1.6,1,3.1,2.3,4.2c1.4,1.1,3.1,1.6,4.9,1.6c2.2,0.1,4.2-0.8,5.7-2.4l2,2.3
			c-0.9,1.1-2,1.9-3.3,2.4c-1.4,0.6-2.9,0.8-4.5,0.8c-1.9,0-3.8-0.4-5.5-1.3c-1.6-0.8-2.9-2.1-3.7-3.6c-1.7-3.2-1.7-7.1,0-10.4
			c0.8-1.5,2-2.7,3.5-3.6c1.5-0.9,3.3-1.3,5.1-1.3c1.8,0,3.5,0.4,5,1.3c1.5,0.8,2.7,2.1,3.5,3.6c0.9,1.6,1.3,3.4,1.2,5.3
			C543.6,147.6,543.5,148,543.5,148.3z M529.5,141.7c-1.2,1.1-1.9,2.5-2,4.1h12.6c-0.1-1.6-0.9-3-2-4.1c-1.2-1.1-2.7-1.6-4.3-1.6
			C532.3,140.1,530.7,140.6,529.5,141.7L529.5,141.7z"/>
		<path class="st1" d="M565,139.3c1.5,1.4,2.2,3.6,2.2,6.4V157h-3.6v-10.9c0.1-1.6-0.4-3.1-1.4-4.3c-1.1-1-2.5-1.5-3.9-1.5
			c-1.7-0.1-3.3,0.5-4.6,1.7c-1.2,1.3-1.8,3.1-1.7,4.9V157h-3.6v-19.7h3.4v3c0.7-1,1.7-1.8,2.9-2.4c1.3-0.6,2.8-0.8,4.2-0.8
			C561.2,137,563.4,137.8,565,139.3z"/>
		<path class="st1" d="M584.9,155.9c-0.6,0.5-1.2,0.8-1.9,1c-0.8,0.2-1.6,0.4-2.4,0.4c-1.7,0.1-3.4-0.5-4.6-1.6
			c-1.2-1.2-1.7-2.9-1.6-4.6v-10.8H571v-2.9h3.3V133h3.6v4.3h5.7v2.9h-5.7v10.7c-0.1,0.9,0.2,1.8,0.8,2.5c0.6,0.6,1.4,0.9,2.3,0.9
			c1,0,2-0.3,2.8-0.9L584.9,155.9z"/>
	</g>
</g>
</svg>
